<svg xmlns="http://www.w3.org/2000/svg" width="355.11" height="313.479" viewBox="0 0 355.11 313.479">
  <path id="Blob_1" data-name="Blob 1" d="M-2032.158-429.886a68.8,68.8,0,0,0,13.3,3.682c36.855,6.336,72.916-19.2,79.173-56.069a69.267,69.267,0,0,0,.853-7.433c1.208-20.1,8.186-39.521,21.02-55.034a53.006,53.006,0,0,0,11.377-24.679c5.041-28.645-14.788-56.823-43.454-61.74a53.455,53.455,0,0,0-11.672-.711,63.075,63.075,0,0,1-46.641-17.689,69.521,69.521,0,0,0-35.674-18.179c-27.149-4.957-60.565,8.457-75.151,36.313-10.507,20.066-26.646,36.71-46.915,46.818a75.9,75.9,0,0,0-41,54.9c-7.027,40,20.328,79.927,60.184,87.749a76.069,76.069,0,0,0,25.25.714C-2091.283-445.481-2060.6-440.95-2032.158-429.886Z" transform="matrix(-0.966, 0.259, -0.259, -0.966, -1950.78, 160.735)" fill="#f19895"/>
</svg>
