<svg xmlns="http://www.w3.org/2000/svg" width="158.086" height="379.453" viewBox="0 0 158.086 379.453">
  <g id="Boy_Illustration" data-name="Boy Illustration" transform="translate(-863.771 -235.63)">
    <path id="Path_24" data-name="Path 24" d="M989.986,816.065l8.341.248,7.724,26.407-7.9.867-8.163-27.522Z" transform="translate(-15.103 -421.369)" fill="#895737" fill-rule="evenodd"/>
    <path id="Path_25" data-name="Path 25" d="M1117.4,306.962c-.785-1.5-1.171-2.689-2.21-1.866-2.022,1.6.807,7.625,2.9,8.984.091.059.262.17.474.3.747,4.975,3.093,8.9,8.161,10.874-.069,2.777.418,4.666-1.725,7-2.933,3.19-24.589,12.565-21.482,12.846,8.271,23.85,56.918,27.521,59.533-.3-1.318-1.85-22.51-12.01-23.8-22.825,1.9-1.47,3.467-4.049,4.724-6.979a8.98,8.98,0,0,0,1.6-.836c2.158-1.358,5.286-7.382,3.345-8.984-.621-.51-1.416.121-2.135,1.033.291-1.219.533-2.371.729-3.4,2.531-13.3-28.224-25.847-30.106,4.16Z" transform="translate(-199.826 -38.378)" fill="#f7a28f" fill-rule="evenodd"/>
    <path id="Path_26" data-name="Path 26" d="M1365.67,937.023c-7.453,0-13.575,3.2-13.673,7.152s5.864,7.152,13.317,7.152,13.574-3.2,13.673-7.152-5.864-7.152-13.317-7.152Z" transform="translate(-476.694 -509.179)" fill="#00203f" fill-rule="evenodd"/>
    <path id="Path_27" data-name="Path 27" d="M1316.231,491.914c-15.042,30.179-61.648,131.122-5.343,131.122,11.463,0,28.1-60.7,25.492-71.616-3.159-13.232,5.109-14.314-7.134-39.3-3.021-6.165-6.889-18.131-13.015-20.21Z" transform="translate(-417.661 -186.05)" fill="#285364" fill-rule="evenodd"/>
    <path id="Path_28" data-name="Path 28" d="M1316.481,836.517l-7.337,49.94-48.969-8.552,9.334-51.531,46.971,10.143Z" transform="translate(-391.7 -428.853)" fill="#d55147" fill-rule="evenodd"/>
    <path id="Path_29" data-name="Path 29" d="M1466.018,826.374l-9.334,51.531-4.7-4.967,9.237-45.793,4.8-.771Z" transform="translate(-588.208 -428.853)" fill="#703129" fill-rule="evenodd"/>
    <path id="Path_32" data-name="Path 32" d="M1049.612,1001.314l.334.674c7.77,1.617,27.464,2.512,28.1-3.105l9.714-154.228c6.029,49.406,8.627,99.165,13.514,148.692.178,1.8.357,3.6.581,5.4.152,1.215.212,3.294,1.825,3.294,3.941,0,22.275,3.758,23.633-2.96,4.536-22.424,3.442-87.445,3.975-111.56.3-13.418.388-26.849.144-40.252-.212-11.664-.656-23.391-1.66-34.987l.014.007-.286-2.982c-.848-8.827-2.08-18.9-4.735-27.259-1.43-4.5-4.2-11.363-9.37-11.62-3.384-.169-6.881-.125-10.274-.136q-8.459-.026-16.921.023-9.577.041-19.154.144c-2.111.024-4.223.049-6.335.092-1.054.022-3.247-.251-3.827,1.087-21.6,49.846-9.686,228.84-9.271,229.681Z" transform="translate(-154.332 -388.131)" fill="#60c6d0" fill-rule="evenodd"/>
    <path id="Path_33" data-name="Path 33" d="M1133.877,826.855h-77.426l-.425,17.1h77.426l.425-17.1Z" transform="translate(-159.102 -429.202)" fill="#41809f" fill-rule="evenodd"/>
    <path id="Path_34" data-name="Path 34" d="M1028.672,567.475c-20.3-2.888,1.714-99.1,3.416-102.443l24.326-10.148c-.929,3.391,3.687,20.224,11.972,20.018h0c8.274.207,13.728-16.627,12.967-20.018l23.822,10.148c1.535,3.342,23.753,102.656,3.3,105.543-1.088-.085-78.716-3.185-79.809-3.1Z" transform="translate(-133.517 -159.168)" fill="#305f72" fill-rule="evenodd"/>
    <path id="Path_35" data-name="Path 35" d="M1229.032,980.179a.453.453,0,0,0,.553.367.516.516,0,0,0,.328-.619l-6.012-26.106a.453.453,0,0,0-.553-.367.517.517,0,0,0-.328.619l6.012,26.106Z" transform="translate(-296.044 -521.095)" fill="#41809f"/>
    <path id="Path_36" data-name="Path 36" d="M1270.849,571.416h14.431l.774-31.13h-20.406l-.774,31.13Z" transform="translate(-362.424 -221.166)" fill="#39577b" fill-rule="evenodd"/>
    <path id="Path_37" data-name="Path 37" d="M1277.305,574.255h11.354l.688-27.687h-11.354l-.688,27.688Zm4.761-5.049.437-17.589h2.206l-.437,17.589Zm-10.736,5.049h4.338l.688-27.687h-4.338l-.688,27.688Z" transform="translate(-367.298 -225.726)" fill="#d6effd" fill-rule="evenodd"/>
    <path id="Path_38" data-name="Path 38" d="M1400.777,990.131c-.563,2,6.543,6.127,9.735,6.127,3.756,0,6.459-1.6,7.9-5.671.51-1.44,1.2-4.212-.028-5.2-1.745-1.4-1.933,1.082-1.809-.978.087-1.451-2.187-2.186-2.537-.524-.249.057.308-1.9-1.281-2.413-4.223-1.371-3.465,11.508-7.292,10.008-.14-.884,1.511-5.877,1.626-7.781.231-3.853-7.521,10.727-6.314,6.431Z" transform="translate(-528.694 -541.373)" fill="#f5988a" fill-rule="evenodd"/>
    <path id="Path_39" data-name="Path 39" d="M1138.673,471.243l1.952-.814,41.85,127.27-10.536,2.081-33.266-128.537Z" transform="translate(-227.939 -170.453)" fill="#bb7f87" fill-rule="evenodd"/>
    <path id="Path_40" data-name="Path 40" d="M1200.462,413.518c4.976,1.988,12.589-1.828,12.976-3.172-.372,1.178-1.064,17.668-12.577,6.888.128-1.068.034-2.2.067-3.524-.158-.062-.312-.126-.465-.191Z" transform="translate(-274.033 -126.836)" fill="#ec8059" fill-rule="evenodd"/>
    <path id="Path_41" data-name="Path 41" d="M1228.459,340.547a.681.681,0,0,0-.64-.737.722.722,0,0,0-.677.737c-.009.358-.12,1.246-.255,2.168-.153,1.038-.333,2.1-.433,2.52a6.1,6.1,0,0,0-.151,1.435,1.757,1.757,0,0,0,.4,1.2,2.494,2.494,0,0,0,1.474.8,3.2,3.2,0,0,0,1.61-.309.78.78,0,0,0,.415-.943.626.626,0,0,0-.832-.438,2.172,2.172,0,0,1-1.018.23,1.384,1.384,0,0,1-.767-.457c-.027-.028.033-.053.029-.173a4.407,4.407,0,0,1,.1-1c.113-.467.306-1.592.464-2.67.145-.991.265-1.956.275-2.364Z" transform="translate(-297.163 -75.63)" fill="#ec8059"/>
    <path id="Path_42" data-name="Path 42" d="M1213.276,337.02c-.438,0-.807.6-.826,1.34s.321,1.338.759,1.338.806-.6.825-1.338-.321-1.34-.758-1.34Z" transform="translate(-277.567 -73.604)" fill="#283c52" fill-rule="evenodd"/>
    <path id="Path_43" data-name="Path 43" d="M1255.069,337.02c-.437,0-.807.6-.825,1.34s.321,1.337.759,1.337.807-.6.825-1.337-.321-1.34-.759-1.34Z" transform="translate(-329.595 -73.604)" fill="#283c52" fill-rule="evenodd"/>
    <path id="Path_44" data-name="Path 44" d="M1161.21,251.786c-1.846-1.5-6.031-9.95-1.206-15.031.614-.646-.448-.447,1.359,1.215,1.165,1.071,6.611,4.586,5.872,3.233l-2.764-5.051c-.393-.719,9.028-1.276,17.251,2.464.728-2.143-2.64-3.1,2.186-1.025,11.682,5.027,11.281,18.551,7.847,29.383-.264.39-6.242,9.712-3.336,2.335,4.057-10.3-3.956-18.581-11.659-13.222-1.8,1.25-4.383-.813-6.6-1.889-5.046,1.815-8.779,6.736-7.737,16.513.092.86-.874-.385-.925-.506-2.008-4.823-3.191-14.065-.287-18.42Z" transform="translate(-244.001 0)" fill="#283c52" fill-rule="evenodd"/>
    <path id="Path_45" data-name="Path 45" d="M1214.638,378.313c1.183,1.269,7.768,3.5,10.088.709.295-.354-3.521,8.164-9.179,2.009-.463-.5-1.827-3.7-.909-2.717Z" transform="translate(-288.733 -103.445)" fill="#d6effd" fill-rule="evenodd"/>
    <path id="Path_46" data-name="Path 46" d="M1278.384,456.6c-12.852,5.882-9.222,19.8-11.025,22.986a3.8,3.8,0,0,0,2.118,5.5c-.625-3.042-.993-2.988-.26-6.526.789-3.809,2.565-2.678,2.509-7.983-.047-4.508,6.234-9.077,6.443-9.608a22.01,22.01,0,0,0,.215-4.372Z" transform="translate(-355.284 -160.412)" fill="#666" fill-rule="evenodd"/>
    <path id="Path_47" data-name="Path 47" d="M1271.763,516.376c-2.892,0-5.34,4.151-5.468,9.272s2.115,9.272,5.007,9.272,5.34-4.151,5.468-9.272-2.114-9.272-5.007-9.272Z" transform="translate(-353.491 -203.809)" fill-rule="evenodd"/>
    <path id="Path_48" data-name="Path 48" d="M1172.721,527.657c-3.427-2.409-8.686-.923-11.745,3.317s-2.76,9.631.667,12.039,8.687.923,11.745-3.318,2.76-9.63-.668-12.039Z" transform="translate(-225.91 -211.161)" fill-rule="evenodd"/>
    <path id="Path_49" data-name="Path 49" d="M1274.1,528.421c-1.474,0-2.731,2.52-2.808,5.628s1.055,5.628,2.529,5.628,2.731-2.52,2.809-5.628-1.055-5.628-2.529-5.628Z" transform="translate(-354.57 -212.553)" fill="#30261a" fill-rule="evenodd"/>
    <path id="Path_50" data-name="Path 50" d="M1156.193,474.115c2.138,5.956.959,8.9-3.224,12.4a4.6,4.6,0,0,0-1.383-.212,5.518,5.518,0,0,0-5.22,5.59c-.08,3.222,2.019,5.59,4.942,5.59a5.518,5.518,0,0,0,5.22-5.59,5.866,5.866,0,0,0-.737-3.033,3.768,3.768,0,0,1,.063-.989c3.179-6.19,7.025-12.388,1.759-19.875l-.152,6.122Z" transform="translate(-207.561 -168.685)" fill="#666" fill-rule="evenodd"/>
    <path id="Path_51" data-name="Path 51" d="M1240.2,426.893c-4.474,17.229,6.662,16.561,6.3,31.107-1.508-5.3-23.612-14.627-20.057-23.669,1.9-4.822,16.043-16.251,13.756-7.439Z" transform="translate(-313.37 -136.495)" fill="#285364" fill-rule="evenodd"/>
    <path id="Path_52" data-name="Path 52" d="M1145.156,453.031c1.216-.807.689-1.626.73-3.269.087-3.51,2.159-5.58,4.2-7.8,5.826-6.333,12.089-7.963,6.237-16.623-.012-.018-3.53-5.776-2.351-4.912,2.334,1.709,3.048,1.822,5.893,2.13a3.035,3.035,0,0,1,2.391,2c.8,2.751.094,1.867,2.926,3.057,1.434.6,1.287,3.859,1.421,5.44.429,5.046-2.6,12.568-7.116,14.074-3.406,1.135-11.257,2.984-12.713,7.34-.493-.127-.833-1.958-1.62-1.435Z" transform="translate(-213.699 -134.087)" fill="#285364" fill-rule="evenodd"/>
    <path id="Path_53" data-name="Path 53" d="M1174.359,442.43a.467.467,0,0,0-.518-.431.505.505,0,0,0-.385.579c1.379,10.467-4.717,14.657-10.032,18.311-2.631,1.808-5.078,3.491-6.45,5.757a.549.549,0,0,0,.122.707.426.426,0,0,0,.631-.136c1.259-2.081,3.627-3.709,6.171-5.457,5.556-3.819,11.927-8.2,10.461-19.329Z" transform="translate(-224.499 -149.81)" fill="#39577b"/>
    <path id="Path_54" data-name="Path 54" d="M1243.585,443.231a.481.481,0,0,0-.471-.491.489.489,0,0,0-.439.527,5.655,5.655,0,0,1-.2,1.28,9.13,9.13,0,0,0,.1,5.393c1.586,4.849,3.145,6.023,6.113,8.257.51.384,1.067.8,1.73,1.325.984.774,1.547,1.226,2.069,1.708s1.043,1.029,1.93,1.983a.423.423,0,0,0,.644-.014.554.554,0,0,0-.013-.72c-.9-.969-1.427-1.522-1.984-2.036s-1.134-.978-2.123-1.756c-.6-.472-1.2-.922-1.748-1.336-2.8-2.112-4.277-3.22-5.763-7.763a8.15,8.15,0,0,1-.075-4.789,6.239,6.239,0,0,0,.229-1.568Z" transform="translate(-325.982 -150.351)" fill="#39577b"/>
    <path id="Path_55" data-name="Path 55" d="M1269.255,427.455a.552.552,0,0,0-.089-.715.425.425,0,0,0-.639.1c-4.006,5.93-2.542,9.048-.955,12.427a18.635,18.635,0,0,1,1.464,3.85.456.456,0,0,0,.553.371.517.517,0,0,0,.332-.619,19.442,19.442,0,0,0-1.542-4.077c-1.447-3.081-2.782-5.923.876-11.338Z" transform="translate(-346.568 -138.662)" fill="#39577b"/>
    <path id="Path_56" data-name="Path 56" d="M1168.924,695.163c-1.508,1.963-6.023,1.415-7.928-.83-.014-.016-1.4-1.263-1.445-1.285-.022-.216-3.878-4.452-5.521-4.452-1.827,0-7.649-.042-8.389,1.891-.935,2.439-3.282,10.086-3,12.547.039.334,1.559.732,2.556-1.112,1.154-2.135-.455,1.581.653,1.9.04.215,1.511.585,1.511-.662,0,.943,1.678,1.829,2.958-.8.57-1.174,3.7-1.205,4.49-.026a8.722,8.722,0,0,0,5.625,2.985c2.73,0,3.675-.38,5.757-.506,1.172-.071,6.946-.159,5.6-2.743-.039-.075-1.581-8.576-2.867-6.9Z" transform="translate(-218.423 -328.832)" fill="#f5988a" fill-rule="evenodd"/>
    <path id="Path_57" data-name="Path 57" d="M1099.2,667.668c-5.563,0-10.072,6.65-10.072,14.853s4.509,14.853,10.072,14.853,10.071-6.65,10.071-14.853-4.509-14.853-10.071-14.853Z" transform="translate(-142.605 -313.64)" fill="#41809f" fill-rule="evenodd"/>
    <path id="Path_58" data-name="Path 58" d="M886.684,491.914c6.257.847,25.38,11.857,39.284,37.674,6.282,11.666,19.3,36.955,3.1,45.954-11.412,6.339-60.545,10.564-63.253-7.335-5.239-34.626-1.477-32.829,24.047-31.742,8.841.376-11.83-36.038-3.177-44.551Z" transform="translate(84.975 -186.05)" fill="#285364" fill-rule="evenodd"/>
    <path id="Path_59" data-name="Path 59" d="M995.615,963.513l-13.4-54.968-46.948,7.976,14.485,55.314,45.864-8.323Z" transform="translate(8.733 -488.505)" fill="#e78543" fill-rule="evenodd"/>
    <path id="Path_60" data-name="Path 60" d="M1122.549,937.651l3.174,53.33,11.311,1.984L1122.875,938.9l-.326-1.247Z" transform="translate(-178.55 -509.634)" fill="#895737" fill-rule="evenodd"/>
    <path id="Path_61" data-name="Path 61" d="M989.157,953.211l-12.764-31.97L990.551,948.7l33.158-4.335-.695-31.039,3.329,35.027-37.187,4.855Z" transform="translate(-32.067 -491.978)" fill="#895737" fill-rule="evenodd"/>
    <path id="Path_74" data-name="Path 74" d="M1303.664,1258.867c-6.763-4.137-2.163,1.176-5.173,1.188-3.834.014-2.627-5.751-4.844-1.561-.626,1.184-2.317-3.042-3.6-2.544-2.071,6.691-1.65-3.28-3.274,1.976-3.588,1.391-3.4-6.924-3.4,11.332,0,14.663,3.724-7.354,6.1,1.162,2.091,7.492,1.967-7.959,7.094.348,3.342,5.414,1.152-10.962,5.549-.026,1.69,4.2.913-7.808,2.918-.967.561,1.914.946-9.061-.947-10.119-.446-.25-.12-.605-.421-.789Z" transform="translate(-386.39 -740.675)" fill="#d6effd" fill-rule="evenodd"/>
    <path id="Path_75" data-name="Path 75" d="M1095.335,1266.186c-6.764-4.136-2.163,1.177-5.173,1.188-3.834.015-2.628-5.751-4.843-1.56-.627,1.184-2.317-3.042-3.6-2.545-2.071,6.691-1.649-3.28-3.274,1.976-3.587,1.392-3.4-6.923-3.4,11.333,0,14.662,3.724-7.354,6.1,1.162,2.092,7.492,1.967-7.959,7.095.348,3.341,5.414,1.152-10.962,5.548-.026,1.69,4.2.914-7.809,2.918-.967.561,1.915.946-9.06-.947-10.119-.446-.25-.12-.605-.421-.79Z" transform="translate(-127.043 -745.988)" fill="#d6effd" fill-rule="evenodd"/>
  </g>
</svg>
