<svg id="Figma_icon" data-name="Figma icon" xmlns="http://www.w3.org/2000/svg" width="28.011" height="42.016" viewBox="0 0 28.011 42.016">
  <path id="path0_fill" d="M7,214.005a7.005,7.005,0,0,0,7-7v-7H7a7,7,0,0,0,0,14.005Z" transform="translate(0 -171.989)" fill="#0acf83"/>
  <path id="path1_fill" d="M0,107a7.005,7.005,0,0,1,7-7h7v14.005H7A7.005,7.005,0,0,1,0,107Z" transform="translate(0 -85.995)" fill="#a259ff"/>
  <path id="path1_fill_1_" d="M0,7A7.005,7.005,0,0,1,7,0h7V14.005H7A7.005,7.005,0,0,1,0,7Z" fill="#f24e1e"/>
  <path id="path2_fill" d="M100,0h7a7,7,0,1,1,0,14.005h-7Z" transform="translate(-85.995)" fill="#ff7262"/>
  <path id="path3_fill" d="M114.005,107a7,7,0,1,1-7-7A7.005,7.005,0,0,1,114.005,107Z" transform="translate(-85.995 -85.995)" fill="#1abcfe"/>
</svg>
